<svg xmlns="http://www.w3.org/2000/svg" viewBox="0 0 64 64">
  <defs>
    <linearGradient id="bg" x1="8" y1="5" x2="58" y2="61" gradientUnits="userSpaceOnUse">
      <stop stop-color="#783dff"/>
      <stop offset=".52" stop-color="#ff3d9e"/>
      <stop offset="1" stop-color="#ff8a3d"/>
    </linearGradient>
    <linearGradient id="gold" x1="16" y1="12" x2="46" y2="53" gradientUnits="userSpaceOnUse">
      <stop stop-color="#fff6b7"/>
      <stop offset=".42" stop-color="#ffd166"/>
      <stop offset="1" stop-color="#f59a22"/>
    </linearGradient>
    <filter id="glow" x="-40%" y="-40%" width="180%" height="180%">
      <feGaussianBlur stdDeviation="1.8" result="b"/>
      <feMerge><feMergeNode in="b"/><feMergeNode in="SourceGraphic"/></feMerge>
    </filter>
  </defs>
  <rect width="64" height="64" rx="15" fill="#0b1026"/>
  <rect x="3" y="3" width="58" height="58" rx="13" fill="url(#bg)"/>
  <path d="M46 17c-4-7-14-8-21-3 5 0 8 2 10 5-8-2-16 3-17 11 3-3 7-5 11-4-6 3-9 9-7 16 2-5 6-8 11-9" fill="none" stroke="url(#gold)" stroke-width="3" stroke-linecap="round" filter="url(#glow)"/>
  <path d="M30 25h-7a10 10 0 1 0 0 20h8V34h-7m15-9v20h4a10 10 0 0 0 0-20h-4Z" fill="none" stroke="url(#gold)" stroke-width="4" stroke-linecap="round" stroke-linejoin="round" filter="url(#glow)"/>
</svg>
